<svg width="502" height="405" viewBox="0 0 502 405" fill="none" xmlns="http://www.w3.org/2000/svg">
<path fill-rule="evenodd" clip-rule="evenodd" d="M243.711 21.0741C292.207 15.1109 341.337 -12.4913 386.006 6.67402C433.231 26.9356 459.931 75.498 478.768 121.925C498.527 170.626 510.619 224.268 494.558 274.219C478.386 324.518 440.946 369.25 391.844 392.272C346.32 413.616 292.636 404.346 243.711 391.829C204.169 381.712 175.119 353.692 143.444 328.719C113.889 305.417 86.4647 282.259 65.6148 251.417C37.5649 209.923 -11.1609 167.738 2.30539 119.935C15.6793 72.4607 78.5925 57.9272 125.538 38.7019C163.148 23.2997 203.18 26.0579 243.711 21.0741Z" fill="#FCBBBB" fill-opacity="0.8"/>
</svg>
