<svg width="500" height="441" viewBox="0 0 500 441" fill="none" xmlns="http://www.w3.org/2000/svg">
<path fill-rule="evenodd" clip-rule="evenodd" d="M257.807 24.7495C309.146 21.5441 360.396 -14.5736 407.254 6.63979C456.099 28.7531 490.792 80.9537 498.965 133.927C506.731 184.263 468.905 227.515 448.534 274.199C430.6 315.3 420.929 360.699 387.142 390.196C351.406 421.395 305.15 443.839 257.807 440.709C211.722 437.661 180.134 397.299 140.334 373.876C94.6535 346.993 29.2797 341.879 7.66501 293.496C-14.0632 244.859 15.202 189.26 35.9363 140.191C55.0607 94.9329 77.7384 47.1753 121.336 24.4911C162.699 2.96918 211.266 27.6553 257.807 24.7495Z" fill="#57A4FF" fill-opacity="0.8"/>
</svg>
