<svg width="378" height="431" viewBox="0 0 378 431" fill="none" xmlns="http://www.w3.org/2000/svg">
<path fill-rule="evenodd" clip-rule="evenodd" d="M160.311 2.31804C200.851 8.36524 229.798 43.0268 262.549 69.4179C294.701 95.3252 330.683 116.432 349.381 154.669C370.464 197.784 386.712 248.601 372.848 294.976C358.972 341.394 317.352 370.795 277.699 394.448C241.812 415.853 201.242 418.568 160.311 421.75C115.796 425.21 63.9353 444.762 29.9081 413.708C-4.20645 382.575 5.23633 324.272 1.01362 276.375C-2.25727 239.275 2.988 204.427 8.20935 167.585C14.6831 121.906 4.92444 68.3413 35.1516 35.4977C66.1338 1.83384 116.682 -4.18995 160.311 2.31804Z" fill="#BE64E9"/>
</svg>
